<?xml version="1.0" standalone="no"?>
<!DOCTYPE svg PUBLIC "-//W3C//DTD SVG 20010904//EN"
 "http://www.w3.org/TR/2001/REC-SVG-20010904/DTD/svg10.dtd">
<svg version="1.0" xmlns="http://www.w3.org/2000/svg"
 width="973.000000pt" height="973.000000pt" viewBox="0 0 973.000000 973.000000"
 preserveAspectRatio="xMidYMid meet">
<metadata>
Created by potrace 1.14, written by Peter Selinger 2001-2017
</metadata>
<g transform="translate(0.000000,973.000000) scale(0.100000,-0.100000)"
fill="#000000" stroke="none">
<path d="M4585 9288 c-231 -16 -402 -57 -734 -175 -139 -50 -450 -236 -605
-362 -100 -81 -340 -321 -378 -379 -18 -27 -66 -94 -105 -149 -40 -55 -73
-103 -73 -106 0 -3 -15 -32 -34 -64 -137 -237 -232 -489 -281 -743 -58 -307
-65 -404 -65 -880 l0 -367 -47 -13 c-67 -18 -116 -44 -203 -108 -136 -99 -226
-218 -289 -382 -59 -152 -56 -54 -56 -1985 0 -1465 2 -1793 14 -1855 15 -86
58 -222 92 -296 58 -125 166 -269 251 -335 24 -18 45 -37 48 -40 11 -15 173
-111 227 -135 31 -13 102 -37 158 -52 l100 -27 2180 0 2180 0 105 28 c208 56
356 142 493 287 123 129 203 275 259 469 l22 76 3 1833 c3 1813 3 1835 -17
1919 -62 262 -215 457 -444 569 -49 24 -95 44 -102 44 -9 0 -13 102 -17 428
-4 304 -10 462 -21 547 -46 349 -122 608 -259 875 -111 215 -112 218 -158 280
-22 30 -58 81 -80 113 -124 178 -349 405 -514 519 -27 19 -79 55 -115 79 -139
97 -354 204 -518 259 -261 87 -397 115 -630 130 -175 11 -215 11 -387 -2z
m535 -1121 c133 -33 255 -77 339 -123 340 -186 582 -470 699 -820 65 -194 65
-195 69 -715 l4 -477 -563 -6 c-310 -4 -954 -6 -1433 -4 l-870 3 0 495 c0 347
4 507 12 535 7 22 19 71 29 110 51 212 216 484 395 650 192 179 414 295 681
354 134 29 134 29 343 27 165 -3 204 -7 295 -29z m-842 -3984 l2 -183 -475 0
-475 0 0 -175 0 -175 438 -2 437 -3 0 -177 c0 -97 -2 -178 -5 -181 -3 -2 -198
-7 -435 -10 -236 -4 -431 -6 -432 -7 -2 0 -3 -90 -3 -200 l0 -200 480 0 480 0
0 -188 0 -189 -717 -6 c-569 -6 -718 -4 -725 5 -9 15 -10 1863 -1 1872 4 3
326 5 717 4 l711 -3 3 -182z m958 178 c125 -12 268 -66 333 -124 23 -21 71
-111 71 -133 0 -7 -38 -14 -102 -18 -57 -4 -134 -13 -173 -21 -142 -27 -244
-38 -410 -44 l-170 -6 0 -275 0 -275 205 0 c242 0 259 5 280 80 25 90 -13 222
-74 255 -41 22 -41 31 1 60 36 25 39 25 278 28 191 3 243 1 252 -10 22 -28 46
-137 51 -235 8 -180 -28 -291 -127 -392 -64 -65 -183 -130 -286 -156 -68 -18
-291 -34 -467 -35 l-118 0 0 -285 0 -285 -235 0 -235 0 0 933 c0 514 3 937 7
940 10 10 813 8 919 -2z m879 -28 c9 -20 30 -60 49 -87 18 -28 89 -160 157
-293 68 -134 128 -242 132 -240 9 3 62 100 233 432 l113 220 271 3 270 2 -26
-52 c-15 -29 -33 -60 -39 -68 -7 -8 -41 -71 -77 -140 -73 -140 -183 -344 -218
-405 -12 -22 -45 -80 -72 -130 -28 -49 -56 -97 -64 -106 -8 -8 -14 -19 -14
-23 0 -3 -28 -52 -62 -109 l-63 -102 -5 -375 -5 -375 -232 -3 -233 -2 0 363 0
364 -42 64 c-24 35 -56 87 -73 116 -16 29 -52 90 -80 135 -79 134 -175 300
-175 306 0 2 -31 55 -68 116 -37 61 -83 140 -102 176 -18 36 -51 94 -72 128
-21 35 -41 77 -45 93 l-5 29 266 0 266 0 15 -37z"/>
</g>
</svg>
