<?xml version="1.0" encoding="UTF-8" standalone="no"?>
<svg
   width="16"
   height="16"
   fill="currentColor"
   class="bi bi-arrow-up-square"
   viewBox="0 0 16 16"
   version="1.1"
   id="svg4"
   sodipodi:docname="arrow-up-square.svg"
   inkscape:version="1.2 (dc2aedaf03, 2022-05-15)"
   xmlns:inkscape="http://www.inkscape.org/namespaces/inkscape"
   xmlns:sodipodi="http://sodipodi.sourceforge.net/DTD/sodipodi-0.dtd"
   xmlns="http://www.w3.org/2000/svg"
   xmlns:svg="http://www.w3.org/2000/svg">
  <defs
     id="defs8" />
  <sodipodi:namedview
     id="namedview6"
     pagecolor="#ffffff"
     bordercolor="#666666"
     borderopacity="1.0"
     inkscape:showpageshadow="2"
     inkscape:pageopacity="0.0"
     inkscape:pagecheckerboard="0"
     inkscape:deskcolor="#d1d1d1"
     showgrid="false"
     inkscape:zoom="52.3125"
     inkscape:cx="8.0095579"
     inkscape:cy="8.0095579"
     inkscape:window-width="1920"
     inkscape:window-height="1017"
     inkscape:window-x="-8"
     inkscape:window-y="-8"
     inkscape:window-maximized="1"
     inkscape:current-layer="svg4" />
  <path
     fill-rule="evenodd"
     d="M15 2a1 1 0 0 0-1-1H2a1 1 0 0 0-1 1v12a1 1 0 0 0 1 1h12a1 1 0 0 0 1-1V2zM0 2a2 2 0 0 1 2-2h12a2 2 0 0 1 2 2v12a2 2 0 0 1-2 2H2a2 2 0 0 1-2-2V2zm8.5 9.5a.5.5 0 0 1-1 0V5.707L5.354 7.854a.5.5 0 1 1-.708-.708l3-3a.5.5 0 0 1 .708 0l3 3a.5.5 0 0 1-.708.708L8.5 5.707V11.5z"
     id="path2" />
  <path
     style="fill:#ff00ff;stroke-width:0.0191159"
     d="M 1.6689293,15.962146 C 1.0284994,15.845506 0.50165135,15.449384 0.2192341,14.872162 0.09510965,14.618469 0.04335803,14.42829 0.01896436,14.136201 c -0.02476509,-0.296537 -0.02476509,-11.9758653 0,-12.2724017 C 0.04335803,1.5717104 0.09510965,1.3815308 0.2192341,1.1278375 0.48146684,0.59186992 0.93968331,0.22290441 1.5401107,0.06424002 L 1.7108722,0.01911589 H 8 14.289128 l 0.170761,0.04512413 c 0.60176,0.15901652 1.058234,0.52659582 1.320815,1.06359748 0.123921,0.2534297 0.177885,0.4573234 0.202178,0.7639007 0.01122,0.1416546 0.01591,2.5597709 0.0122,6.2898628 -0.0057,5.762596 -0.0077,6.066767 -0.04052,6.203106 -0.05251,0.218339 -0.103458,0.356433 -0.199413,0.540556 -0.259511,0.49796 -0.703516,0.847026 -1.284914,1.010168 l -0.161983,0.04545 -6.2508963,0.0032 c -5.0819258,0.0026 -6.2766139,-0.0015 -6.3884184,-0.02189 z M 14.155317,14.996049 c 0.17012,-0.02381 0.407644,-0.13819 0.529342,-0.254912 0.114322,-0.109648 0.214074,-0.259946 0.268776,-0.404967 l 0.04298,-0.113948 0.0056,-6.1553164 c 0.0041,-4.4657439 -2.37e-4,-6.1867993 -0.01569,-6.2700119 -0.07337,-0.3949782 -0.431911,-0.7370909 -0.831016,-0.7929423 -0.182843,-0.0255872 -12.1277913,-0.0255872 -12.3106336,0 -0.3914432,0.054779 -0.7499229,0.391548 -0.8298021,0.7795463 -0.0295306,0.1434393 -0.0295306,12.2895653 0,12.4330043 0.077833,0.378062 0.4392307,0.724875 0.8106862,0.777973 0.1647029,0.02354 12.1618155,0.02507 12.3297495,0.0016 z"
     id="path3819" />
  <path
     style="fill:#1b82af;stroke-width:0.0191159;fill-opacity:1"
     d="M 7.8560455,11.96586 C 7.738651,11.929671 7.6124754,11.817146 7.5579202,11.699988 l -0.045002,-0.09664 -1.911e-4,-2.9486258 c -9.83e-5,-1.6217443 -0.00666,-2.948626 -0.014582,-2.948626 -0.00792,0 -0.5046941,0.4909138 -1.1039427,1.0909194 C 5.6017185,7.5904979 5.2795365,7.9008772 5.2125142,7.9354116 4.9116577,8.0904333 4.5439658,7.8789391 4.5163565,7.5349859 4.4977995,7.3038041 4.4171688,7.3959585 6.170295,5.6446625 7.7076972,4.108865 7.7543692,4.064279 7.8553214,4.0349468 c 0.1293834,-0.037593 0.1600711,-0.037585 0.2893572,8.04e-5 0.100874,0.029388 0.1485991,0.074936 1.6774717,1.6009558 0.9353057,0.9335608 1.5892627,1.6007753 1.6121467,1.6448313 0.04882,0.093987 0.06486,0.2466503 0.03682,0.350401 -0.07629,0.2822738 -0.425024,0.4374488 -0.683632,0.3041963 C 10.720464,7.9008772 10.398281,7.5904979 9.6057977,6.7970126 9.0065491,6.197007 8.5097749,5.7060932 8.501855,5.7060932 c -0.00792,0 -0.014484,1.3268817 -0.014587,2.948626 l -1.911e-4,2.9486258 -0.045002,0.09664 c -0.056152,0.120586 -0.1816218,0.230017 -0.3061241,0.26699 -0.1147625,0.03408 -0.166397,0.03387 -0.2799102,-0.0011 z"
     id="path3821" />
  <path
     style="fill:#1b82af;fill-opacity:1;stroke-width:0.0191159"
     d="M 1.7108722,15.951424 C 1.2913483,15.905304 0.78737537,15.626132 0.50186594,15.281704 0.29453305,15.031585 0.13092371,14.699723 0.06148981,14.388452 0.03084706,14.251081 0.02867384,13.828641 0.02867384,8.0095579 c 0,-5.0423617 0.0047512,-6.2554955 0.02489319,-6.3560334 C 0.14578597,1.1932177 0.40931275,0.74990733 0.75753256,0.4692987 0.95070524,0.31363288 1.1536535,0.20458705 1.4248408,0.11074835 L 1.6344086,0.03823178 H 8 14.365591 l 0.209568,0.07251657 c 0.271187,0.0938387 0.474136,0.20288453 0.667308,0.35855035 0.276969,0.2231917 0.514451,0.5691878 0.63239,0.9213529 0.111411,0.3326698 0.105902,-0.00565 0.104683,6.4277474 -6.16e-4,3.248746 -0.0081,6.057348 -0.01667,6.241338 -0.01327,0.285502 -0.02323,0.358341 -0.06795,0.497013 -0.22255,0.690063 -0.705108,1.151556 -1.431447,1.368959 l -0.152406,0.04562 -6.2331903,-0.0026 c -3.4282546,-0.0014 -6.2934054,-0.0092 -6.3670015,-0.01731 z M 14.194817,14.994969 c 0.301365,-0.05463 0.587161,-0.276547 0.728389,-0.565573 l 0.07321,-0.149826 0.0051,-6.2126644 c 0.0035,-4.2708993 -0.0012,-6.2421644 -0.0149,-6.3070498 C 14.910766,1.4018949 14.554411,1.0619576 14.193555,1.0033256 14.036889,0.9778703 1.9631246,0.9778703 1.8064586,1.0033256 1.4365909,1.0634216 1.0671176,1.424701 1.0144408,1.7777778 0.9901291,1.9407319 0.9741803,8.6315332 0.9908147,11.689367 c 0.0133403,2.452301 0.0156414,2.575061 0.0498061,2.657109 0.056909,0.136668 0.1963152,0.336237 0.2938295,0.420636 0.1306153,0.113049 0.342938,0.213282 0.4863493,0.229597 0.2053583,0.02336 12.2448964,0.02167 12.3740244,-0.0017 z"
     id="path4894" />
  <path
     style="fill:#1b82af;fill-opacity:1;stroke-width:0.0191159"
     d="M 7.8267072,11.939968 C 7.7106378,11.88725 7.6216965,11.799995 7.5640747,11.682316 l -0.05153,-0.105238 V 8.6415857 c 0,-2.0211422 -0.0062,-2.9354925 -0.019898,-2.9354925 -0.010944,0 -0.4733093,0.4496732 -1.0274791,0.9992738 C 5.2091816,7.9509978 5.2303834,7.9314355 5.1032949,7.9619236 4.8176781,8.0304421 4.539276,7.8079518 4.5256584,7.5002948 4.5213684,7.4032628 4.5281284,7.3822033 4.5961944,7.2807142 4.6414304,7.2132642 5.2823438,6.5573291 6.2019291,5.6373431 7.3616271,4.4771398 7.753521,4.0962549 7.8196556,4.0650611 7.932786,4.0117011 8.0668121,4.0115961 8.180345,4.0647788 8.246868,4.0959408 8.6428843,4.481186 9.8457093,5.6848504 11.567806,7.4081493 11.469534,7.2967195 11.469534,7.526093 c 0,0.1987391 -0.138569,0.3644158 -0.35819,0.4282613 -0.09033,0.02626 -0.123283,0.027535 -0.210012,0.00813 C 10.770794,7.9332674 10.80045,7.96055 9.534832,6.705367 8.9806622,6.1557664 8.5196326,5.7060932 8.510322,5.7060932 c -0.00971,0 -0.021497,1.2592778 -0.02764,2.9524555 L 8.47197,11.611004 8.42765,11.699744 C 8.3459303,11.863374 8.1722565,11.975266 8,11.975266 c -0.052569,0 -0.1305504,-0.01588 -0.1732928,-0.0353 z"
     id="path4896" />
  <path
     style="fill:#1b82af;fill-opacity:1;stroke-width:0.0191159"
     d="m 7.2258065,15.952002 c -3.0752689,-0.0055 -5.6129033,-0.01715 -5.6391876,-0.02583 -0.026284,-0.0087 -0.1037037,-0.03338 -0.172043,-0.05491 C 1.0493733,15.75626 0.68132441,15.49896 0.45791799,15.202477 0.32096331,15.020724 0.15253371,14.684378 0.09148654,14.470729 L 0.04778973,14.317802 V 8 1.6821983 L 0.091238,1.5292712 C 0.11513455,1.4451613 0.18573404,1.2731183 0.24812574,1.1469534 0.50027154,0.63707888 0.84223042,0.34012234 1.4270622,0.12316694 L 1.6302514,0.04778973 h 6.3721903 6.3721903 l 0.200934,0.07547431 c 0.583491,0.21916916 0.929173,0.51867206 1.182585,1.02460386 0.126752,0.2530583 0.165931,0.4049855 0.186409,0.7228484 0.01167,0.1810878 0.01656,2.5642067 0.01309,6.3682323 l -0.0056,6.0788534 -0.04223,0.148388 c -0.133095,0.46765 -0.405064,0.86309 -0.771447,1.121675 -0.191744,0.135328 -0.361511,0.218757 -0.626816,0.308034 l -0.222471,0.07486 -0.735962,-0.0044 c -0.404779,-0.0024 -3.252091,-0.0089 -6.3273595,-0.01441 z m 6.9758615,-0.954991 c 0.06755,-0.0098 0.179376,-0.04541 0.248506,-0.07921 0.170199,-0.08322 0.38941,-0.303855 0.484957,-0.488097 l 0.07084,-0.136607 v -6.24941 c 0,-6.9373336 0.01155,-6.3368188 -0.126252,-6.5649048 C 14.801247,1.348888 14.61013,1.1662729 14.478088,1.0950138 14.257678,0.9760645 14.750152,0.98446834 8,0.98446834 c -6.7480071,0 -6.2558086,-0.008369 -6.4788556,0.11015616 C 1.3851185,1.1669075 1.1460085,1.409586 1.0834723,1.5388292 1.0554923,1.5966552 1.0221613,1.6955795 1.0094033,1.7586619 0.9783911,1.9120027 0.9756506,13.89464 1.0065633,14.177978 c 0.018735,0.171718 0.02679,0.195719 0.1110675,0.330937 0.049977,0.08019 0.1317179,0.186642 0.1816457,0.236569 0.099352,0.09935 0.32895,0.223305 0.4621238,0.249486 0.1151668,0.02264 12.2839337,0.02464 12.4402677,0.002 z"
     id="path4898" />
</svg>
