<?xml version="1.0" encoding="UTF-8" standalone="no"?>
<svg
   width="16"
   height="16"
   fill="currentColor"
   class="bi bi-arrow-down-square"
   viewBox="0 0 16 16"
   version="1.1"
   id="svg4"
   sodipodi:docname="arrow-down-square.svg"
   inkscape:version="1.2 (dc2aedaf03, 2022-05-15)"
   xmlns:inkscape="http://www.inkscape.org/namespaces/inkscape"
   xmlns:sodipodi="http://sodipodi.sourceforge.net/DTD/sodipodi-0.dtd"
   xmlns="http://www.w3.org/2000/svg"
   xmlns:svg="http://www.w3.org/2000/svg">
  <defs
     id="defs8" />
  <sodipodi:namedview
     id="namedview6"
     pagecolor="#ffffff"
     bordercolor="#666666"
     borderopacity="1.0"
     inkscape:showpageshadow="2"
     inkscape:pageopacity="0.0"
     inkscape:pagecheckerboard="0"
     inkscape:deskcolor="#d1d1d1"
     showgrid="false"
     inkscape:zoom="52.3125"
     inkscape:cx="8.0095579"
     inkscape:cy="8.0095579"
     inkscape:window-width="1920"
     inkscape:window-height="1017"
     inkscape:window-x="-8"
     inkscape:window-y="-8"
     inkscape:window-maximized="1"
     inkscape:current-layer="svg4" />
  <path
     fill-rule="evenodd"
     d="M15 2a1 1 0 0 0-1-1H2a1 1 0 0 0-1 1v12a1 1 0 0 0 1 1h12a1 1 0 0 0 1-1V2zM0 2a2 2 0 0 1 2-2h12a2 2 0 0 1 2 2v12a2 2 0 0 1-2 2H2a2 2 0 0 1-2-2V2zm8.5 2.5a.5.5 0 0 0-1 0v5.793L5.354 8.146a.5.5 0 1 0-.708.708l3 3a.5.5 0 0 0 .708 0l3-3a.5.5 0 0 0-.708-.708L8.5 10.293V4.5z"
     id="path2" />
  <path
     style="fill:#1b82af;stroke-width:0.0191159;fill-opacity:1"
     d="M 1.6689293,15.962146 C 1.0284994,15.845506 0.50165135,15.449384 0.2192341,14.872162 0.09510965,14.618469 0.04335803,14.42829 0.01896436,14.136201 c -0.02476509,-0.296537 -0.02476509,-11.9758653 0,-12.2724017 C 0.04335803,1.5717104 0.09510965,1.3815308 0.2192341,1.1278375 0.48146684,0.59186992 0.93968331,0.22290441 1.5401107,0.06424002 L 1.7108722,0.01911589 H 8 14.289128 l 0.170761,0.04512413 c 0.60176,0.15901652 1.058234,0.52659582 1.320815,1.06359748 0.123921,0.2534297 0.177885,0.4573234 0.202178,0.7639007 0.01122,0.1416546 0.01591,2.5597709 0.0122,6.2898628 -0.0057,5.762596 -0.0077,6.066767 -0.04052,6.203106 -0.05251,0.218339 -0.103458,0.356433 -0.199413,0.540556 -0.259511,0.49796 -0.703516,0.847026 -1.284914,1.010168 l -0.161983,0.04545 -6.2508963,0.0032 c -5.0819258,0.0026 -6.2766139,-0.0015 -6.3884184,-0.02189 z M 14.155317,14.996049 c 0.17012,-0.02381 0.407644,-0.13819 0.529342,-0.254912 0.114322,-0.109648 0.214074,-0.259946 0.268776,-0.404967 l 0.04298,-0.113948 0.0056,-6.1553164 c 0.0041,-4.4657439 -2.37e-4,-6.1867993 -0.01569,-6.2700119 -0.07337,-0.3949782 -0.431911,-0.7370909 -0.831016,-0.7929423 -0.182843,-0.0255872 -12.1277913,-0.0255872 -12.3106336,0 -0.3914432,0.054779 -0.7499229,0.391548 -0.8298021,0.7795463 -0.0295306,0.1434393 -0.0295306,12.2895653 0,12.4330043 0.077833,0.378062 0.4392307,0.724875 0.8106862,0.777973 0.1647029,0.02354 12.1618155,0.02507 12.3297495,0.0016 z"
     id="path930" />
  <path
     style="fill:#1b82af;fill-opacity:1;stroke-width:0.0191159"
     d="M 7.8470729,11.963762 C 7.7576178,11.936811 7.6506619,11.834315 6.1778496,10.364138 5.2426829,9.4306441 4.588584,8.763235 4.565703,8.7191857 4.5168822,8.6251982 4.5008398,8.4725354 4.5288816,8.3687847 4.6051746,8.0865109 4.9539057,7.9313359 5.2125142,8.0645884 c 0.067022,0.034534 0.3892043,0.3449137 1.1816881,1.138399 0.5992486,0.6000056 1.0960228,1.0909196 1.1039427,1.0909196 0.00792,0 0.014484,-1.3268819 0.014587,-2.9486262 l 1.911e-4,-2.9486261 0.045002,-0.096642 C 7.6327316,4.1393534 7.8342423,4.004779 8,4.004779 c 0.1657577,0 0.3672684,0.1345744 0.4420798,0.2952333 l 0.045002,0.096642 1.911e-4,2.9486261 c 9.56e-5,1.6217443 0.00667,2.9486266 0.014587,2.9486266 0.00792,0 0.5046941,-0.4909144 1.1039427,-1.09092 0.8045434,-0.8055591 1.1141154,-1.1035767 1.1834804,-1.139307 0.257795,-0.1327914 0.605544,0.022816 0.681841,0.3051043 0.02804,0.1037507 0.012,0.2564135 -0.03682,0.350401 -0.02288,0.044056 -0.67684,0.7112705 -1.6121468,1.6448317 -1.5288726,1.52602 -1.5765977,1.571568 -1.6774717,1.600956 -0.1253519,0.03652 -0.1730183,0.03632 -0.2976057,-0.0012 z"
     id="path2003" />
  <path
     style="fill:#1b82af;fill-opacity:1;stroke-width:0.0191159"
     d="M 1.7108722,15.951482 C 1.2756451,15.903449 0.7772047,15.620187 0.47842126,15.251083 0.23123372,14.945719 0.08698368,14.606738 0.03722704,14.214298 0.01011521,14.000461 0.01289867,1.9851663 0.04011208,1.7604757 0.09873935,1.2764133 0.3790556,0.7716947 0.75768669,0.46845905 0.95160308,0.31315653 1.1548909,0.20415891 1.4248408,0.11074835 L 1.6344086,0.03823178 H 8 14.365591 l 0.209568,0.07251657 c 0.561491,0.19429219 0.945407,0.5233263 1.186737,1.01708915 0.117489,0.2403839 0.168405,0.4095559 0.199601,0.6631916 0.01614,0.1312241 0.02024,1.7980945 0.01562,6.3523401 l -0.0063,6.1744328 -0.05289,0.172043 c -0.219722,0.71474 -0.656353,1.163321 -1.380328,1.418105 l -0.152927,0.05382 -6.2700117,0.0022 c -3.4485065,0.0012 -6.330227,-0.0044 -6.4038231,-0.01253 z m 12.6294618,-0.99521 c 0.270828,-0.105433 0.454211,-0.272431 0.583517,-0.531382 l 0.07256,-0.14532 0.0051,-6.2126644 c 0.0035,-4.2708993 -0.0012,-6.2421644 -0.0149,-6.3070498 C 14.913061,1.4127523 14.583042,1.0879208 14.227382,1.0125549 14.03271,0.9713031 1.9672941,0.9713031 1.7726222,1.0125549 1.406262,1.0901879 1.0652442,1.4360908 1.013898,1.7821472 0.990664,1.9387359 0.9757077,8.4639866 0.9913651,11.612903 c 0.0126343,2.540919 0.0146259,2.651016 0.0494479,2.733573 0.1450599,0.34391 0.469994,0.614829 0.7799816,0.650321 0.065709,0.0075 2.8807606,0.01266 6.255671,0.01143 l 6.1362004,-0.0023 z"
     id="path2005" />
  <path
     style="fill:#1b82af;fill-opacity:1;stroke-width:0.0191159"
     d="M 7.818399,11.934922 C 7.7545623,11.904382 7.3249818,11.486519 6.1526979,10.314656 4.4290016,8.5915783 4.5308027,8.7069607 4.5305726,8.4761248 4.5303721,8.2751193 4.6678621,8.1098323 4.8886558,8.0456457 c 0.090173,-0.026214 0.1233592,-0.027518 0.2095207,-0.00824 0.131353,0.029395 0.1038343,0.0041 1.3573999,1.2475787 0.559408,0.5549052 1.0260746,1.0089186 1.037037,1.0089186 0.013745,0 0.019931,-0.9108589 0.019931,-2.9344974 V 4.4249119 l 0.042204,-0.089786 C 7.6395034,4.154819 7.8294188,4.0207089 8,4.0207089 c 0.1645532,0 0.3586449,0.1326411 0.4391551,0.3001162 0.035261,0.07335 0.036725,0.1722452 0.04475,3.0244557 0.00456,1.6217443 0.015617,2.9486262 0.024563,2.9486262 0.00895,0 0.5133475,-0.492667 1.1208902,-1.0948152 0.7060437,-0.6997752 1.1321387,-1.1082172 1.1808817,-1.1319574 0.104696,-0.050993 0.279692,-0.048606 0.384339,0.00524 0.185451,0.095427 0.274954,0.2271191 0.274954,0.4045591 0,0.2258462 0.09587,0.1173173 -1.6238246,1.8382145 -1.202825,1.203664 -1.5988409,1.588909 -1.6653643,1.620071 -0.1139168,0.05336 -0.2500131,0.05325 -0.3619457,-3e-4 z"
     id="path2007" />
</svg>
